<svg width="36" height="53" viewBox="0 0 36 53" fill="none" xmlns="http://www.w3.org/2000/svg">
<rect x="0.818182" y="0.818182" width="34.3636" height="50.7273" rx="17.1818" stroke="white" stroke-width="1.63636"/>
<path d="M18.8182 9C18.8182 8.54813 18.4519 8.18182 18 8.18182C17.5481 8.18182 17.1818 8.54813 17.1818 9L18.8182 9ZM17.4215 41.4876C17.741 41.8072 18.259 41.8072 18.5785 41.4876L23.7854 36.2808C24.1049 35.9612 24.1049 35.4432 23.7854 35.1237C23.4659 34.8042 22.9479 34.8042 22.6283 35.1237L18 39.752L13.3717 35.1237C13.0521 34.8042 12.5341 34.8042 12.2146 35.1237C11.8951 35.4432 11.8951 35.9612 12.2146 36.2808L17.4215 41.4876ZM17.1818 9L17.1818 40.9091L18.8182 40.9091L18.8182 9L17.1818 9Z" fill="white"/>
</svg>
